<?xml version="1.0" encoding="utf-8"?>
<!-- Generator: Adobe Illustrator 21.0.0, SVG Export Plug-In . SVG Version: 6.00 Build 0)  -->
<svg version="1.1" id="Layer_1" xmlns="http://www.w3.org/2000/svg" xmlns:xlink="http://www.w3.org/1999/xlink" x="0px" y="0px"
	 viewBox="0 0 2270 2500" style="enable-background:new 0 0 2270 2500;" xml:space="preserve">
<style type="text/css">
	.st0{fill:#8CC84B;}
	.st1{fill:#4C4C4C;}
</style>
<g>
	<g>
		<path class="st0" d="M1014.5,700.7c31.8-18.2,73.2-18.3,105,0c159.8,90.3,319.7,180.5,479.5,270.8c30.1,16.9,50.2,50.4,49.9,85
			v543.3c0.2,36.1-21.9,70.3-53.6,86.9c-159.3,89.8-318.5,179.7-477.8,269.5c-32.5,18.6-74.7,17.1-106.1-3
			c-47.8-27.7-95.6-55.2-143.4-82.9c-9.8-5.8-20.8-10.4-27.7-19.9c6.1-8.2,17-9.2,25.8-12.8c19.9-6.3,38.2-16.5,56.6-26.4
			c4.6-3.2,10.3-2,14.7,0.9c40.8,23.4,81.3,47.5,122.3,70.7c8.7,5,17.6-1.7,25.1-5.8c156.3-88.4,312.8-176.4,469.1-264.7
			c5.8-2.8,9-8.9,8.5-15.3c0.1-179.2,0-358.5,0.1-537.7c0.7-7.2-3.5-13.8-10-16.8c-158.7-89.4-317.4-178.9-476.1-268.4
			c-5.6-3.9-13.1-3.9-18.7,0c-158.7,89.5-317.4,179.1-476.1,268.5c-6.5,3-10.8,9.5-10.1,16.7c0,179.2,0,358.5,0,537.8
			c-0.6,6.3,2.9,12.4,8.6,15.1c42.4,24,84.8,47.9,127.1,71.8c23.9,12.9,53.2,20.5,79.5,10.6c23.2-8.3,39.5-32,39-56.7
			c0.2-178.2-0.1-356.4,0.2-534.6c-0.6-7.9,6.9-14.4,14.6-13.7c20.4-0.1,40.7-0.3,61.1,0.1c8.5-0.2,14.3,8.3,13.3,16.3
			c-0.1,179.3,0.2,358.6-0.1,538c0.1,47.8-19.6,99.8-63.8,123.2c-54.5,28.2-121.8,22.2-175.6-4.8c-46.6-23.2-91-50.7-136.8-75.6
			c-31.8-16.5-53.8-50.8-53.5-86.9v-543.3c-0.3-35.3,20.6-69.4,51.6-86.1C696,880.5,855.2,790.6,1014.5,700.7z"/>
		<path class="st0" d="M1153.4,1077c69.5-4.5,143.8-2.6,206.3,31.6c48.4,26.2,75.2,81.3,76.1,135c-1.4,7.3-8.9,11.3-15.9,10.8
			c-20.2,0-40.3,0.3-60.5-0.1c-8.5,0.3-13.5-7.6-14.6-15.1c-5.8-25.7-19.8-51.2-44-63.6c-37.2-18.6-80.3-17.7-120.8-17.3
			c-29.6,1.6-61.4,4.1-86.5,21.5c-19.2,13.2-25.1,39.8-18.2,61.2c6.5,15.4,24.2,20.4,38.8,24.9c83.7,21.9,172.4,19.7,254.5,48.5
			c34,11.7,67.3,34.6,78.9,70.2c15.2,47.7,8.5,104.7-25.4,143c-27.5,31.5-67.6,48.7-107.6,58c-53.2,11.9-108.4,12.2-162.4,6.9
			c-50.8-5.8-103.7-19.1-142.9-53.7c-33.5-29.1-49.9-74.5-48.3-118.3c0.4-7.4,7.8-12.6,14.8-11.9c20.3-0.2,40.6-0.2,60.9,0
			c8.1-0.6,14.1,6.4,14.5,14.1c3.7,24.5,13,50.2,34.3,64.8c41.3,26.6,93,24.8,140.2,25.5c39.1-1.7,83.1-2.3,115-28.1
			c16.8-14.8,21.8-39.4,17.3-60.7c-4.9-17.9-23.7-26.3-39.8-31.7c-82.6-26.1-172.3-16.7-254.2-46.2c-33.2-11.7-65.4-33.9-78.1-68.1
			c-17.8-48.3-9.7-108.1,27.9-145.1C1050.5,1096.3,1103.2,1082.1,1153.4,1077L1153.4,1077z"/>
	</g>
	<g>
		<path class="st1" d="M1014.5,700.7c31.8-18.2,73.2-18.3,105,0c159.8,90.3,319.7,180.5,479.5,270.8c30.1,16.9,50.2,50.4,49.9,85
			v543.3c0.2,36.1-21.9,70.3-53.6,86.9c-159.3,89.8-318.5,179.7-477.8,269.5c-32.5,18.6-74.7,17.1-106.1-3
			c-47.8-27.7-95.6-55.2-143.4-82.9c-9.8-5.8-20.8-10.4-27.7-19.9c6.1-8.2,17-9.2,25.8-12.8c19.9-6.3,38.2-16.5,56.6-26.4
			c4.6-3.2,10.3-2,14.7,0.9c40.8,23.4,81.3,47.5,122.3,70.7c8.7,5,17.6-1.7,25.1-5.8c156.3-88.4,312.8-176.4,469.1-264.7
			c5.8-2.8,9-8.9,8.5-15.3c0.1-179.2,0-358.5,0.1-537.7c0.7-7.2-3.5-13.8-10-16.8c-158.7-89.4-317.4-178.9-476.1-268.4
			c-5.6-3.9-13.1-3.9-18.7,0c-158.7,89.5-317.4,179.1-476.1,268.5c-6.5,3-10.8,9.5-10.1,16.7c0,179.2,0,358.5,0,537.8
			c-0.6,6.3,2.9,12.4,8.6,15.1c42.4,24,84.8,47.9,127.1,71.8c23.9,12.9,53.2,20.5,79.5,10.6c23.2-8.3,39.5-32,39-56.7
			c0.2-178.2-0.1-356.4,0.2-534.6c-0.6-7.9,6.9-14.4,14.6-13.7c20.4-0.1,40.7-0.3,61.1,0.1c8.5-0.2,14.3,8.3,13.3,16.3
			c-0.1,179.3,0.2,358.6-0.1,538c0.1,47.8-19.6,99.8-63.8,123.2c-54.5,28.2-121.8,22.2-175.6-4.8c-46.6-23.2-91-50.7-136.8-75.6
			c-31.8-16.5-53.8-50.8-53.5-86.9v-543.3c-0.3-35.3,20.6-69.4,51.6-86.1C696,880.5,855.2,790.6,1014.5,700.7z"/>
		<path class="st1" d="M1153.4,1077c69.5-4.5,143.8-2.6,206.3,31.6c48.4,26.2,75.2,81.3,76.1,135c-1.4,7.3-8.9,11.3-15.9,10.8
			c-20.2,0-40.3,0.3-60.5-0.1c-8.5,0.3-13.5-7.6-14.6-15.1c-5.8-25.7-19.8-51.2-44-63.6c-37.2-18.6-80.3-17.7-120.8-17.3
			c-29.6,1.6-61.4,4.1-86.5,21.5c-19.2,13.2-25.1,39.8-18.2,61.2c6.5,15.4,24.2,20.4,38.8,24.9c83.7,21.9,172.4,19.7,254.5,48.5
			c34,11.7,67.3,34.6,78.9,70.2c15.2,47.7,8.5,104.7-25.4,143c-27.5,31.5-67.6,48.7-107.6,58c-53.2,11.9-108.4,12.2-162.4,6.9
			c-50.8-5.8-103.7-19.1-142.9-53.7c-33.5-29.1-49.9-74.5-48.3-118.3c0.4-7.4,7.8-12.6,14.8-11.9c20.3-0.2,40.6-0.2,60.9,0
			c8.1-0.6,14.1,6.4,14.5,14.1c3.7,24.5,13,50.2,34.3,64.8c41.3,26.6,93,24.8,140.2,25.5c39.1-1.7,83.1-2.3,115-28.1
			c16.8-14.8,21.8-39.4,17.3-60.7c-4.9-17.9-23.7-26.3-39.8-31.7c-82.6-26.1-172.3-16.7-254.2-46.2c-33.2-11.7-65.4-33.9-78.1-68.1
			c-17.8-48.3-9.7-108.1,27.9-145.1C1050.5,1096.3,1103.2,1082.1,1153.4,1077L1153.4,1077z"/>
	</g>
</g>
</svg>
